<?xml version="1.0" encoding="utf-8"?>
<!-- Generator: Adobe Illustrator 25.3.0, SVG Export Plug-In . SVG Version: 6.00 Build 0)  -->
<svg version="1.1" id="Capa_1" xmlns="http://www.w3.org/2000/svg" xmlns:xlink="http://www.w3.org/1999/xlink" x="0px" y="0px"
	 viewBox="0 0 80 80" enable-background="new 0 0 80 80" xml:space="preserve">
<g id="Logo">
	<g>
		<g>
			<polygon fill="#88D2E4" points="45.106,34.893 40.02,36.24 49.37,1.346 54.456,0 			"/>
		</g>
		<g>
			<g enable-background="new    ">
				<g>
					<polygon fill="#3499C5" points="42.508,45.159 43.854,40.074 69.2,65.565 67.854,70.649 					"/>
				</g>
				<g>
					<polygon fill="#0572A9" points="42.508,45.159 67.854,70.649 32.96,80 27.114,74.12 41.067,70.38 48.051,68.509 28.551,48.899 
											"/>
				</g>
			</g>
		</g>
		<g>
			<polygon fill="#0572A9" points="34.941,37.736 38.651,41.467 3.756,50.816 0.047,47.087 			"/>
		</g>
	</g>
	<g>
		<path fill="#88D2E4" d="M11.788,31.024l1.84-6.949l0,0c1.228-4.633,2.457-9.266,3.683-13.899l-8.059,2.16l-9.206,34.75
			l34.894-9.351l3.682-13.903L11.788,31.024z"/>
	</g>
	<polygon fill="#3499C5" points="79.953,25.353 54.456,0 52.301,8.042 45.106,34.893 55.305,45.037 62.499,18.192 66.778,22.446 
		66.78,22.444 77.796,33.403 	"/>
</g>
</svg>
